<?xml version="1.0" encoding="utf-8"?>
<!-- Generator: Adobe Illustrator 23.0.3, SVG Export Plug-In . SVG Version: 6.00 Build 0)  -->
<svg version="1.1" id="Calque_1" xmlns="http://www.w3.org/2000/svg" xmlns:xlink="http://www.w3.org/1999/xlink" x="0px" y="0px"
	 viewBox="0 0 956.83 554.25" style="enable-background:new 0 0 956.83 554.25;" xml:space="preserve">
<style type="text/css">
	.st0{display:none;}
	.st1{display:inline;fill:#F9E39A;}
	.st2{display:inline;}
	.st3{display:inline;fill:#FFFFFF;}
	.st4{display:inline;fill:none;stroke:#000000;stroke-width:0.5;stroke-miterlimit:10;}
	.st5{stroke:#000000;stroke-width:0.5;stroke-miterlimit:10;}
	.st6{fill:#FFEFC9;}
	.st7{fill:#F4DBA8;}
	.st8{fill:#373635;}
	.st9{fill:none;stroke:#000000;stroke-miterlimit:10;}
	.st10{stroke:#000000;stroke-miterlimit:10;}
	.st11{fill:#FFFFFF;}
	.st12{fill:#FCD198;}
	.st13{fill:#B382A0;stroke:#000000;stroke-width:0.5;stroke-miterlimit:10;}
	.st14{fill:none;stroke:#000000;stroke-width:0.5;stroke-miterlimit:10;}
	.st15{fill:#1B1B1A;}
	.st16{fill:#373636;}
	.st17{fill:#373636;stroke:#000000;stroke-width:0.5;stroke-miterlimit:10;}
	.st18{fill:#C91517;stroke:#000000;stroke-width:0.25;stroke-miterlimit:10;}
	.st19{fill:none;}
	.st20{font-family:'Poco';}
	.st21{font-size:27px;}
	.st22{fill:#282727;}
	.st23{fill:#282727;stroke:#000000;stroke-miterlimit:10;}
	.st24{fill:none;stroke:#AA1917;stroke-width:4;stroke-miterlimit:10;}
	.st25{fill:#AA1917;stroke:#AA1917;stroke-width:3;stroke-miterlimit:10;}
</style>
<g id="peau" class="st0">
	<rect x="85.78" y="123.23" class="st1" width="172.52" height="129.01"/>
</g>
<g class="st0">
	<rect x="210.64" y="152.75" class="st2" width="25.08" height="4.69"/>
	<rect x="142.21" y="152.75" class="st2" width="25.08" height="4.69"/>
	<rect x="220.07" y="165.09" class="st2" width="15.65" height="15.65"/>
	<rect x="151.65" y="165.09" class="st2" width="15.65" height="15.65"/>
	<rect x="151.65" y="208.74" class="st3" width="76.25" height="24.63"/>
	<line class="st4" x1="151.65" y1="221.06" x2="227.9" y2="221.06"/>
</g>
<g id="cheveux">
	<polygon class="st5" points="516.45,139.13 95.15,244.47 155.4,140.04 421.43,73.52 	"/>
	<polygon class="st5" points="371.78,252.89 181.44,261.59 45.58,166.22 235.92,157.52 	"/>
	<polygon class="st5" points="305.8,267.5 152.46,324.11 4.98,255.26 158.32,198.66 	"/>
	<polygon class="st5" points="276.66,311 284.7,349.11 71.09,321.66 268.78,278.97 	"/>
	<polygon class="st5" points="460.64,247.09 191.48,190.21 254.17,150.23 424.14,186.15 	"/>
</g>
<g id="peau_1_">
	<polygon class="st6" points="352.59,362.77 224.45,360.17 200.95,209.53 371.13,216.5 	"/>
	<polygon class="st7" points="363.66,274.51 273.82,274.76 295.8,212.76 368.8,235.22 	"/>
	<polygon class="st7" points="283.98,271.52 217.01,272.73 226.02,207.2 300.51,213.15 	"/>
	<polygon class="st6" points="296.78,272.16 291.37,295.08 202.36,284.53 211.6,254.44 	"/>
	<polygon class="st8" points="309.23,222.94 313.76,221.49 335.56,233.73 304.78,224.37 	"/>
	<polygon class="st8" points="298.01,226.89 307.64,217.71 363.88,214.65 286.15,238.2 	"/>
	<polygon class="st5" points="264.68,144.24 295.45,98.38 401.42,267.66 238,186.57 	"/>
	<polygon class="st6" points="270.64,339.11 226.08,360.69 186.62,303.78 246.52,276.55 	"/>
	<polygon class="st6" points="245.11,288.27 183.13,314.43 163.21,251.99 197.71,236.66 	"/>
	<polygon class="st5" points="196.13,180.06 211.23,152.9 249.57,240.06 183.34,204.58 	"/>
	<polygon class="st5" points="207.29,258 173.66,177.88 203.94,173.26 240.53,268.65 	"/>
	<circle class="st6" cx="337.9" cy="329.83" r="14.27"/>
</g>
<g id="sourcils">
	<line class="st9" x1="286.26" y1="238.69" x2="318.37" y2="228.96"/>
	<line class="st9" x1="318.1" y1="228.93" x2="335.56" y2="233.27"/>
</g>
<g id="ombre_cheveux">
	<g>
		<polygon class="st8" points="138.94,168.49 155.42,139.96 202.41,148.21 161.52,195.81 		"/>
	</g>
	<polygon class="st8" points="168.84,177.23 161.6,195.42 45.58,166.46 175.14,160.08 	"/>
	<polygon class="st8" points="406.34,79.94 421.96,73.51 516.45,139.13 392.12,86.23 	"/>
	<polygon class="st8" points="126.1,226.2 143.86,244.47 4.98,255.26 112.75,213.3 	"/>
	<polygon class="st8" points="133.82,238.18 143.86,244.47 86.05,262.64 126.39,233.82 	"/>
	<polygon class="st8" points="127.97,313.25 135.82,317.6 69.7,321.79 122.55,310.39 	"/>
	<g>
		<polygon class="st8" points="422.39,185.89 436.25,209.56 333.72,184.18 374.86,175.71 		"/>
	</g>
	<polygon class="st8" points="415.21,183.9 424.46,185.69 460.87,246.91 406.38,182.39 	"/>
	<polygon class="st8" points="373.81,226.12 382.34,231.06 401.42,267.36 363.3,220.04 	"/>
	<polygon class="st8" points="232.99,209.63 237.06,210.93 249.93,240.46 229.1,208.47 	"/>
	<polygon class="st8" points="218.74,225.53 224.78,226.99 240.99,269.27 212.94,224.26 	"/>
	<polygon class="st8" points="421.03,81.27 420.13,90.44 359.45,88.95 421.63,73.03 	"/>
</g>
<g id="nez" class="st0">
	<g class="st2">
		<g>
			<path d="M264.94,297.71c6.76,3.43,14.21,7.14,22.03,5.94c6.28-0.96,11.54-4.74,13.57-10.84c1.02-3.06-3.81-4.37-4.82-1.33
				c-4.2,12.61-20.38,5.91-28.26,1.91C264.6,291.94,262.07,296.25,264.94,297.71L264.94,297.71z"/>
		</g>
	</g>
</g>
<g id="yeux">
	<ellipse class="st10" cx="312.2" cy="265.68" rx="20.21" ry="26.48"/>
	<ellipse class="st11" cx="312.62" cy="266.41" rx="20.15" ry="26.35"/>
	<ellipse class="st10" cx="325.01" cy="267.36" rx="7.4" ry="15.43"/>
	<circle class="st11" cx="320.47" cy="255.57" r="3.28"/>
</g>
<g id="nez_1_">
	<polygon class="st6" points="363.01,310.8 342.99,301.09 350.07,278.97 376,291.56 	"/>
	<polygon class="st6" points="353.55,362.79 247.29,313.96 361.37,302.34 370.52,335.72 	"/>
</g>
<g id="oreille">
	<path class="st12" d="M183.78,275.74c0.03,3.74,0.09,7.48,0.1,11.22c0,0.13-0.01,0.25-0.02,0.37l3.1,8.3l4.52-26.15L183.78,275.74z
		"/>
	<path class="st12" d="M190.67,269.72c-0.21,0.38-0.47,0.74-0.77,1.06l-3.51,24.68l14.11-3.07l1.01-15.45L190.67,269.72z"/>
	<polygon class="st12" points="190.02,271.61 195.02,258.55 197.87,259.53 194.03,272.49 	"/>
	<polygon class="st12" points="194.49,261.75 187.43,249.55 190.11,248.23 197.87,259.56 	"/>
	<polygon class="st12" points="176.17,260.14 174.23,256 176.71,256.27 178.41,263.62 	"/>
	<polygon class="st12" points="191.47,250.38 175.52,258.46 174.23,256.18 187.7,249.44 	"/>
	<path class="st13" d="M349.88,328.54c0.01,0,0.02,0.01,0.02,0.01c-0.02-0.01-0.04-0.02-0.06-0.02c-0.06-0.02-0.12-0.05-0.18-0.07
		c-0.05-0.01-0.1-0.01-0.13-0.01c-0.38-0.01-0.75-0.07-1.1-0.15c-0.46-0.04-0.91-0.09-1.32-0.16c-6.78-1.09-13.44-2.83-20.13-4.32
		c-7.08-1.58-14.18-2.92-21.3-4.28c-0.59-0.11-1.17-0.26-1.76-0.4c-2.57-0.15-5.09-0.73-7.64-0.99c-0.52-0.05-1.02-0.18-1.5-0.34
		c-2.34-0.31-4.67-0.75-6.99-1.22c-0.16,0.61-0.31,1.22-0.41,1.85c-2.27,13.88,10.39,27.5,28.28,30.43
		c17.88,2.93,34.23-5.94,36.51-19.81c-0.21-0.05-0.42-0.11-0.63-0.16C350.97,328.86,350.43,328.74,349.88,328.54z"/>
	<line class="st14" x1="326.98" y1="323.81" x2="343.57" y2="342.8"/>
	<g>
		<g>
			<path d="M339.94,334.42c3.22,0,3.22-5,0-5S336.72,334.42,339.94,334.42L339.94,334.42z"/>
		</g>
	</g>
	<g>
		<g>
			<path d="M339.6,332c2.2-0.04,4.07,1.22,6.39,1.07c2.65-0.17,3.59-4.33,0.66-4.91c-1.19-0.23-2.33-0.51-3.5-0.84
				c-3.12-0.89-4.35,3.79-1.33,4.82c2.5,0.85,5.04,0.93,7.67,1.06c-0.72-1.25-1.44-2.51-2.16-3.76c-0.58,1.19-1.16,2.39-1.78,3.56
				c-0.34,0.64-1.35,2.32-1.32,2.31c0.64,0.08,1.28,0.17,1.93,0.25c-0.97-0.42-5.1-2.48-5.25-3.39c-0.08,0.64-0.17,1.28-0.25,1.93
				c0.11-0.19,0.22-0.38,0.33-0.58c-0.5,0.38-1,0.77-1.49,1.15c1.33-0.3,1.21,0.29,2.14,0.97c0.84,0.61,1.72,0.69,2.72,0.8
				c-0.72-1.25-1.44-2.51-2.16-3.76c-0.7,1.6-1.29,3.18-1.72,4.88c1.39-0.37,2.79-0.74,4.18-1.1c-1.89-1.97-3.11-4.45-5.16-6.3
				c-1.44-1.29-4.53-0.55-4.27,1.77c0.01,0.13,0.03,0.25,0.04,0.38c1.55-0.42,3.11-0.84,4.66-1.26c-1.05-1.62-2.63-2.65-3.73-4.2
				c-0.94,1.22-1.88,2.45-2.82,3.67c1.68,0.26,3.34,0.57,5.01,0.93c3.14,0.68,4.48-4.14,1.33-4.82c-1.66-0.36-3.33-0.67-5.01-0.93
				c-1.9-0.3-4.23,1.7-2.82,3.67c1.09,1.54,2.72,2.64,3.73,4.2c1.22,1.89,4.96,1.38,4.66-1.26c-0.01-0.13-0.03-0.25-0.04-0.38
				c-1.42,0.59-2.85,1.18-4.27,1.77c2.03,1.83,3.27,4.33,5.16,6.3c1.29,1.34,3.72,0.7,4.18-1.1c0.32-1.28,0.68-2.46,1.22-3.68
				c0.81-1.83-0.16-3.54-2.16-3.76c0.44,0.39,0.51,0.41,0.19,0.04c-0.21-0.31-0.47-0.57-0.78-0.79c-0.54-0.42-1.18-0.76-1.85-0.94
				c-1.12-0.29-2.66-0.33-3.76,0.09c-2.81,1.08-2.53,4.45-0.62,6.2c1.78,1.63,5.72,4.69,8.28,4.02c3.12-0.81,4.57-5.58,5.82-8.12
				c0.85-1.73-0.19-3.66-2.16-3.76c-2.18-0.11-4.25-0.17-6.34-0.88c-0.44,1.61-0.89,3.21-1.33,4.82c1.17,0.33,2.31,0.61,3.5,0.84
				c0.22-1.64,0.44-3.27,0.66-4.91c-2.25,0.14-4.13-1.11-6.39-1.07C336.39,327.06,336.38,332.06,339.6,332L339.6,332z"/>
		</g>
	</g>
	<g>
		<g>
			<path d="M343.99,341.64c3.22,0,3.22-5,0-5S340.76,341.64,343.99,341.64L343.99,341.64z"/>
		</g>
	</g>
	<g>
		<g>
			<path d="M344.23,341.51c3.22,0,3.22-5,0-5S341.01,341.51,344.23,341.51L344.23,341.51z"/>
		</g>
	</g>
	<g>
		<g>
			<path d="M343.82,342.08c3.22,0,3.22-5,0-5C340.61,337.08,340.6,342.08,343.82,342.08L343.82,342.08z"/>
		</g>
	</g>
	<g>
		<g>
			<path d="M343.52,342.42c1.24,0,3.02-1.87,1.07-1.87C343.35,340.55,341.57,342.42,343.52,342.42L343.52,342.42z"/>
		</g>
	</g>
	<g>
		<g>
			<path d="M343.6,342.5c0.04,0,0.04-5,0-5S343.56,342.5,343.6,342.5L343.6,342.5z"/>
		</g>
	</g>
	<g>
		<g>
			<path d="M343.66,337.5c-0.08,0-0.15,0-0.23,0c-0.04,0-0.04,5,0,5c0.08,0,0.15,0,0.23,0C343.7,342.5,343.7,337.5,343.66,337.5
				L343.66,337.5z"/>
		</g>
	</g>
	<g>
		<g>
			<path d="M349.66,330.31c0.57,0,3.26-1.1,1.9-1.1C350.99,329.22,348.31,330.31,349.66,330.31L349.66,330.31z"/>
		</g>
	</g>
	<g>
		<g>
			<path d="M349.1,330.14c0,0.06,0,0.13,0,0.19c0,0.66,2.9,0.19,2.9-0.78c0-0.06,0-0.13,0-0.19C352,328.7,349.1,329.17,349.1,330.14
				L349.1,330.14z"/>
		</g>
	</g>
	<g>
		<g>
			<path d="M328.58,325.9c0.52,0.41,1.05,0.68,1.68,0.87c0.61,0.19,1.26,0.24,1.87,0.45c-0.16-0.08-0.31-0.16-0.47-0.25
				c0,0.03,0,0.06,0,0.08c0.03-0.15,0.06-0.3,0.09-0.45c-0.28,0.55-0.53,1.07-0.61,1.69c0.93-0.25,1.86-0.5,2.79-0.75
				c-0.55-0.58-1.11-1.17-1.66-1.75c-0.74-0.78-3.5,0.3-2.68,1.16c0.55,0.58,1.11,1.17,1.66,1.75c0.6,0.64,2.68,0.21,2.79-0.75
				c0.06-0.47,0.24-0.81,0.41-1.24c0.24-0.58-0.01-0.98-0.59-1.17c-0.86-0.28-1.87-0.25-2.61-0.83c-0.54-0.43-1.33-0.33-1.93-0.07
				C329.04,324.8,328.04,325.47,328.58,325.9L328.58,325.9z"/>
		</g>
	</g>
	<g>
		<g>
			<path d="M327.5,324.4c0.3,0.26,0.6,0.54,0.89,0.81c0.18,0.17,0.79,0.08,0.69-0.25c-0.05-0.18-0.07-0.32-0.06-0.51
				c-0.22,0.08-0.43,0.16-0.65,0.23c0.24,0.19,0.49,0.28,0.79,0.28c0.16,0,0.41-0.04,0.47-0.22c0.06-0.15-0.05-0.28-0.22-0.29
				c-0.19,0-0.34-0.06-0.49-0.18c-0.17-0.13-0.63-0.01-0.65,0.23c-0.01,0.22,0.01,0.43,0.07,0.64c0.23-0.08,0.46-0.17,0.69-0.25
				c-0.32-0.31-0.65-0.61-0.99-0.91C327.83,323.8,327.19,324.14,327.5,324.4L327.5,324.4z"/>
		</g>
	</g>
</g>
<g id="corps">
	
		<ellipse transform="matrix(0.9673 -0.2538 0.2538 0.9673 -90.9015 97.9307)" class="st15" cx="334.11" cy="401.28" rx="24.4" ry="8.83"/>
	<rect x="243.14" y="367.99" class="st16" width="97.7" height="113.47"/>
	<rect x="270.24" y="483.47" class="st17" width="26.68" height="58.3"/>
	<rect x="294.11" y="483.47" class="st17" width="26.68" height="58.3"/>
	
		<ellipse transform="matrix(0.5 -0.866 0.866 0.5 -204.1972 461.8837)" class="st15" cx="297.91" cy="407.78" rx="13.81" ry="34.5"/>
	<polygon class="st18" points="340.98,377.69 335.29,374.9 334.1,368.35 342.13,368.35 	"/>
	<polygon class="st18" points="335.28,390.06 341.12,376.94 341.46,401.25 333.22,395.07 	"/>
	
		<ellipse transform="matrix(0.9673 -0.2538 0.2538 0.9673 -95.2074 98.7909)" class="st15" cx="335.29" cy="418.4" rx="24.4" ry="8.83"/>
	<polygon class="st7" points="368.31,414.72 357.82,415.79 350.65,408.06 353.97,399.25 364.46,398.18 371.63,405.91 	"/>
	<polygon class="st7" points="367.5,397.61 357.01,398.69 349.84,390.96 353.16,382.15 363.65,381.08 370.82,388.81 	"/>
	<rect x="545.73" y="207.31" class="st19" width="395.89" height="275.14"/>
	<text transform="matrix(1 0 0 1 545.7319 220.8078)" class="st20 st21">Because it’s the best of the </text>
	<text transform="matrix(1 0 0 1 545.7319 253.2078)" class="st20 st21">best for me !</text>
	<rect x="645.45" y="324.83" width="294.79" height="5.74"/>
	<rect x="940.24" y="171.65" width="5.74" height="153.18"/>
	<rect x="506.05" y="165.91" width="434.19" height="5.74"/>
	<rect x="500.32" y="171.64" width="5.74" height="153.18"/>
	<rect x="506.05" y="325.29" width="68.17" height="5.74"/>
	<rect x="603.7" y="330.56" width="48.59" height="5.74"/>
	<rect x="568.49" y="325.28" width="5.74" height="16.73"/>
	<rect x="560.14" y="331.02" width="8.36" height="16.73"/>
	<rect x="554.4" y="347.74" width="5.74" height="5.74"/>
	<rect x="549.06" y="353.48" width="33.95" height="5.74"/>
	<rect x="577.27" y="347.75" width="5.74" height="11.47"/>
	<rect x="577.27" y="347.75" width="25.17" height="5.74"/>
	<rect x="596.7" y="342.01" width="5.74" height="11.47"/>
	<rect x="596.85" y="342.01" width="12.59" height="5.74"/>
	<rect x="603.7" y="336.27" width="5.74" height="11.47"/>
	<polygon class="st22" points="337.07,167.38 180.33,189.32 175.14,130.26 331.97,116.48 	"/>
	
		<rect x="277.21" y="103.59" transform="matrix(0.9962 -0.0873 0.0873 0.9962 -10.4012 27.1498)" class="st22" width="55.93" height="57.79"/>
	<polygon class="st23" points="354.72,103.86 106.89,159.02 193.37,94.09 383.33,53.73 	"/>
	<line class="st24" x1="247.29" y1="106.37" x2="223.49" y2="133.43"/>
	<line class="st24" x1="223.96" y1="132" x2="223.96" y2="251.95"/>
	<circle class="st25" cx="223.96" cy="255.57" r="6.17"/>
</g>
</svg>
