<?xml version="1.0" encoding="utf-8"?>
<!-- Generator: Adobe Illustrator 23.0.3, SVG Export Plug-In . SVG Version: 6.00 Build 0)  -->
<svg version="1.1" id="Calque_1" xmlns="http://www.w3.org/2000/svg" xmlns:xlink="http://www.w3.org/1999/xlink" x="0px" y="0px"
	 viewBox="0 0 956.43 552.85" style="enable-background:new 0 0 956.43 552.85;" xml:space="preserve">
<style type="text/css">
	.st0{display:none;}
	.st1{display:inline;fill:#F9E39A;}
	.st2{display:inline;}
	.st3{display:inline;fill:#FFFFFF;}
	.st4{display:inline;fill:none;stroke:#000000;stroke-width:0.5;stroke-miterlimit:10;}
	.st5{stroke:#000000;stroke-width:0.5;stroke-miterlimit:10;}
	.st6{fill:#FFEFC9;}
	.st7{fill:#F4DBA8;}
	.st8{fill:#373635;}
	.st9{fill:none;stroke:#000000;stroke-miterlimit:10;}
	.st10{stroke:#000000;stroke-miterlimit:10;}
	.st11{fill:#FFFFFF;}
	.st12{fill:#FCD198;}
	.st13{fill:#B382A0;stroke:#000000;stroke-width:0.5;stroke-miterlimit:10;}
	.st14{fill:none;stroke:#000000;stroke-width:0.5;stroke-miterlimit:10;}
	.st15{fill:none;}
	.st16{font-family:'Poco';}
	.st17{font-size:27px;}
	.st18{fill:#F49519;}
	.st19{fill:#2D2D2C;stroke:#000000;stroke-width:0.5;stroke-miterlimit:10;}
	.st20{fill:#BA712E;}
</style>
<g id="peau" class="st0">
	<rect x="565.44" y="123.11" class="st1" width="172.52" height="129.01"/>
</g>
<g class="st0">
	<rect x="690.31" y="152.62" class="st2" width="25.08" height="4.69"/>
	<rect x="621.88" y="152.62" class="st2" width="25.08" height="4.69"/>
	<rect x="699.74" y="164.96" class="st2" width="15.65" height="15.65"/>
	<rect x="631.32" y="164.96" class="st2" width="15.65" height="15.65"/>
	<rect x="631.32" y="208.62" class="st3" width="76.25" height="24.63"/>
	<line class="st4" x1="631.32" y1="220.93" x2="707.57" y2="220.93"/>
</g>
<g id="cheveux">
	<g>
		<polygon class="st5" points="625.45,136.37 740.64,152.57 672.61,27.16 538.29,8.27 		"/>
	</g>
	<polygon class="st5" points="435.4,138.69 856.69,244.03 796.44,139.6 530.41,73.08 	"/>
	<polygon class="st5" points="580.06,252.45 770.4,261.15 906.26,165.79 715.92,157.08 	"/>
	<polygon class="st5" points="646.04,267.07 799.38,323.67 946.86,254.83 793.52,198.22 	"/>
	<polygon class="st5" points="675.19,310.57 667.14,348.67 880.75,321.22 683.07,278.54 	"/>
	<polygon class="st5" points="491.2,246.65 760.36,189.78 697.67,149.8 527.7,185.71 	"/>
</g>
<g id="peau_1_">
	<polygon class="st6" points="599.25,362.33 727.4,359.74 750.89,209.1 580.71,216.06 	"/>
	<polygon class="st7" points="588.18,274.08 678.03,274.32 656.04,212.33 583.04,234.78 	"/>
	<polygon class="st7" points="667.86,271.09 734.83,272.3 725.82,206.76 651.34,212.71 	"/>
	<polygon class="st6" points="655.07,271.72 660.47,294.64 749.48,284.1 740.24,254 	"/>
	<polygon class="st8" points="642.61,222.51 638.09,221.05 616.28,233.29 647.06,223.94 	"/>
	<polygon class="st8" points="653.84,226.45 644.2,217.28 587.96,214.21 665.7,237.76 	"/>
	<polygon class="st5" points="685.94,131.56 652.62,74.58 550.42,267.23 713.98,183.09 	"/>
	<polygon class="st6" points="681.21,338.67 725.76,360.25 765.22,303.35 705.32,276.11 	"/>
	<polygon class="st6" points="706.73,287.84 768.72,313.99 788.64,251.55 754.13,236.23 	"/>
	<polygon class="st5" points="755.72,179.63 740.62,152.46 702.27,239.62 768.5,204.14 	"/>
	<polygon class="st5" points="744.55,257.56 778.18,177.45 747.9,172.83 711.31,268.21 	"/>
	<circle class="st6" cx="613.95" cy="329.4" r="14.27"/>
</g>
<g id="sourcils">
	<line class="st9" x1="665.58" y1="238.25" x2="633.47" y2="228.52"/>
	<line class="st9" x1="633.74" y1="228.49" x2="616.28" y2="232.83"/>
</g>
<g id="ombre_cheveux">
	<g>
		<polygon class="st8" points="687.02,145.02 735.61,145.84 700.25,82.63 645.34,83.09 		"/>
	</g>
	<g>
		<polygon class="st8" points="643.25,39.95 683.68,48.33 663.66,25.94 537.87,8.28 		"/>
	</g>
	<g>
		<polygon class="st8" points="637.7,22.05 679.82,134.14 725.62,124.27 672.3,26.61 		"/>
	</g>
	<g>
		<polygon class="st8" points="681.55,110.06 688.22,145.52 777.27,168.84 796.44,139.6 		"/>
	</g>
	<g>
		<polygon class="st8" points="812.91,168.05 796.43,139.53 749.44,147.78 790.32,195.37 		"/>
	</g>
	<polygon class="st8" points="783,176.79 790.24,194.98 906.26,166.02 776.7,159.65 	"/>
	<g>
		<polygon class="st8" points="530.38,72.86 493.91,98.29 611.57,116.51 592.33,88.35 		"/>
	</g>
	<polygon class="st8" points="543.1,84.32 529.78,73.09 434.88,138.78 555.17,95.11 	"/>
	<polygon class="st8" points="825.74,225.77 807.98,244.03 946.86,254.83 839.1,212.87 	"/>
	<polygon class="st8" points="818.02,237.75 807.98,244.03 865.79,262.2 825.45,233.38 	"/>
	<polygon class="st8" points="823.88,312.81 816.02,317.16 882.15,321.36 829.29,309.95 	"/>
	<g>
		<polygon class="st8" points="529.45,185.45 515.59,209.12 618.12,183.75 576.98,175.27 		"/>
	</g>
	<polygon class="st8" points="536.63,183.47 527.38,185.25 490.97,246.47 545.47,181.95 	"/>
	<polygon class="st8" points="578.04,225.68 569.5,230.62 550.42,266.92 588.54,219.6 	"/>
	<polygon class="st8" points="718.85,209.2 714.79,210.5 701.91,240.02 722.74,208.04 	"/>
	<polygon class="st8" points="733.1,225.09 727.06,226.55 710.85,268.83 738.9,223.83 	"/>
</g>
<g id="nez" class="st0">
	<g class="st2">
		<g>
			<path d="M744.61,297.59c6.76,3.43,14.21,7.14,22.03,5.94c6.28-0.96,11.54-4.74,13.57-10.84c1.02-3.06-3.81-4.37-4.82-1.33
				c-4.2,12.61-20.38,5.91-28.26,1.91C744.27,291.82,741.74,296.13,744.61,297.59L744.61,297.59z"/>
		</g>
	</g>
</g>
<g id="yeux">
	<ellipse class="st10" cx="639.64" cy="265.24" rx="20.21" ry="26.48"/>
	<ellipse class="st11" cx="639.22" cy="265.97" rx="20.15" ry="26.35"/>
	<ellipse class="st10" cx="626.83" cy="266.92" rx="7.4" ry="15.43"/>
	<circle class="st11" cx="631.37" cy="255.13" r="3.28"/>
</g>
<g id="nez_1_">
	<polygon class="st6" points="588.83,310.37 608.86,300.65 601.78,278.54 575.84,291.12 	"/>
	<polygon class="st6" points="598.3,362.35 704.55,313.53 590.47,301.9 581.32,335.29 	"/>
</g>
<g id="oreille">
	<path class="st12" d="M768.06,275.3c-0.03,3.74-0.09,7.48-0.1,11.22c0,0.13,0.01,0.25,0.02,0.37l-3.1,8.3l-4.52-26.15L768.06,275.3
		z"/>
	<path class="st12" d="M761.17,269.29c0.21,0.38,0.47,0.74,0.77,1.06l3.51,24.68l-14.11-3.07l-1.01-15.45L761.17,269.29z"/>
	<polygon class="st12" points="761.82,271.18 756.82,258.12 753.97,259.09 757.81,272.05 	"/>
	<polygon class="st12" points="757.35,261.32 764.42,249.11 761.74,247.79 753.97,259.12 	"/>
	<polygon class="st12" points="775.67,259.7 777.61,255.56 775.13,255.84 773.43,263.18 	"/>
	<polygon class="st12" points="760.37,249.95 776.32,258.02 777.61,255.74 764.14,249 	"/>
	<path class="st13" d="M601.96,328.1c-0.01,0-0.02,0.01-0.02,0.01c0.02-0.01,0.04-0.02,0.06-0.02c0.06-0.02,0.12-0.05,0.18-0.07
		c0.05-0.01,0.1-0.01,0.13-0.01c0.38-0.01,0.75-0.07,1.1-0.15c0.46-0.04,0.91-0.09,1.32-0.16c6.78-1.09,13.44-2.83,20.13-4.32
		c7.08-1.58,14.18-2.92,21.3-4.28c0.59-0.11,1.17-0.26,1.76-0.4c2.57-0.15,5.09-0.73,7.64-0.99c0.52-0.05,1.02-0.18,1.5-0.34
		c2.34-0.31,4.67-0.75,6.99-1.22c0.16,0.61,0.31,1.22,0.41,1.85c2.27,13.88-10.39,27.5-28.28,30.43
		c-17.88,2.93-34.23-5.94-36.51-19.81c0.21-0.05,0.42-0.11,0.63-0.16C600.87,328.43,601.41,328.3,601.96,328.1z"/>
	<line class="st14" x1="624.86" y1="323.37" x2="608.27" y2="342.36"/>
	<g>
		<g>
			<path d="M611.9,333.99c3.22,0,3.22-5,0-5C608.69,328.99,608.68,333.99,611.9,333.99L611.9,333.99z"/>
		</g>
	</g>
	<g>
		<g>
			<path d="M612.24,326.56c-2.25-0.04-4.14,1.21-6.39,1.07c0.22,1.64,0.44,3.27,0.66,4.91c1.19-0.23,2.33-0.51,3.5-0.84
				c-0.44-1.61-0.89-3.21-1.33-4.82c-2.09,0.71-4.15,0.77-6.34,0.88c-1.97,0.1-3.01,2.03-2.16,3.76c1.22,2.49,2.61,7.03,5.56,8.06
				c2.61,0.91,6.8-2.31,8.55-3.96c1.8-1.7,2.26-4.79-0.32-6.08c-1.13-0.57-2.86-0.53-4.06-0.22c-0.67,0.18-1.31,0.51-1.85,0.94
				c-0.19,0.18-0.39,0.36-0.58,0.54c-0.53,0.6-0.53,0.67,0,0.21c-2,0.22-2.97,1.93-2.16,3.76c0.54,1.22,0.9,2.4,1.22,3.68
				c0.46,1.81,2.89,2.45,4.18,1.1c1.89-1.97,3.13-4.47,5.16-6.3c-1.42-0.59-2.85-1.18-4.27-1.77c-0.01,0.13-0.03,0.25-0.04,0.38
				c-0.3,2.64,3.44,3.15,4.66,1.26c1.01-1.56,2.64-2.66,3.73-4.2c1.41-1.98-0.92-3.97-2.82-3.67c-1.68,0.26-3.34,0.57-5.01,0.93
				c-3.14,0.68-1.81,5.5,1.33,4.82c1.66-0.36,3.33-0.67,5.01-0.93c-0.94-1.22-1.88-2.45-2.82-3.67c-1.1,1.55-2.68,2.58-3.73,4.2
				c1.55,0.42,3.11,0.84,4.66,1.26c0.01-0.13,0.03-0.25,0.04-0.38c0.26-2.32-2.82-3.07-4.27-1.77c-2.05,1.84-3.27,4.32-5.16,6.3
				c1.39,0.37,2.79,0.74,4.18,1.1c-0.43-1.7-1.02-3.28-1.72-4.88c-0.72,1.25-1.44,2.51-2.16,3.76c1-0.11,1.88-0.19,2.72-0.8
				c0.93-0.68,0.81-1.26,2.14-0.97c-0.5-0.38-1-0.77-1.49-1.15c0.11,0.19,0.22,0.38,0.33,0.58c-0.08-0.64-0.17-1.28-0.25-1.93
				c-0.15,0.9-4.28,2.97-5.25,3.39c0.64-0.08,1.28-0.17,1.93-0.25c0.03,0.01-0.98-1.67-1.32-2.31c-0.62-1.17-1.19-2.37-1.78-3.56
				c-0.72,1.25-1.44,2.51-2.16,3.76c2.62-0.13,5.16-0.21,7.67-1.06c3.02-1.03,1.8-5.72-1.33-4.82c-1.17,0.33-2.31,0.61-3.5,0.84
				c-2.9,0.57-2.01,4.74,0.66,4.91c2.32,0.15,4.19-1.11,6.39-1.07C615.46,331.62,615.46,326.62,612.24,326.56L612.24,326.56z"/>
		</g>
	</g>
	<g>
		<g>
			<path d="M607.86,341.2c3.22,0,3.22-5,0-5S604.63,341.2,607.86,341.2L607.86,341.2z"/>
		</g>
	</g>
	<g>
		<g>
			<path d="M607.61,341.08c3.22,0,3.22-5,0-5C604.4,336.08,604.39,341.08,607.61,341.08L607.61,341.08z"/>
		</g>
	</g>
	<g>
		<g>
			<path d="M608.02,341.64c3.22,0,3.22-5,0-5C604.8,336.64,604.8,341.64,608.02,341.64L608.02,341.64z"/>
		</g>
	</g>
	<g>
		<g>
			<path d="M607.26,341.98c1.24,0,3.02-1.87,1.07-1.87C607.09,340.11,605.3,341.98,607.26,341.98L607.26,341.98z"/>
		</g>
	</g>
	<g>
		<g>
			<path d="M608.24,342.06c0.04,0,0.04-5,0-5C608.21,337.06,608.2,342.06,608.24,342.06L608.24,342.06z"/>
		</g>
	</g>
	<g>
		<g>
			<path d="M608.18,342.06c0.08,0,0.15,0,0.23,0c0.04,0,0.04-5,0-5c-0.08,0-0.15,0-0.23,0
				C608.14,337.06,608.14,342.06,608.18,342.06L608.18,342.06z"/>
		</g>
	</g>
	<g>
		<g>
			<path d="M600.28,329.88c0.57,0,3.26-1.1,1.9-1.1C601.61,328.78,598.93,329.88,600.28,329.88L600.28,329.88z"/>
		</g>
	</g>
	<g>
		<g>
			<path d="M599.85,329.7c0,0.06,0,0.13,0,0.19c0,0.66,2.9,0.19,2.9-0.78c0-0.06,0-0.13,0-0.19
				C602.74,328.27,599.85,328.73,599.85,329.7L599.85,329.7z"/>
		</g>
	</g>
	<g>
		<g>
			<path d="M620.74,324.6c-0.23,0.18-0.58,0.22-0.87,0.29c-0.6,0.14-1.23,0.2-1.78,0.5c-0.5,0.27-0.97,0.71-0.77,1.32
				c0.16,0.48,0.4,0.85,0.47,1.37c0.05,0.43,0.79,0.49,1.08,0.48c0.52-0.02,1.17-0.2,1.54-0.59c0.55-0.58,1.11-1.17,1.66-1.75
				c0.42-0.44,0.32-0.95-0.3-1.11c-0.64-0.16-1.59,0.06-2.05,0.55c-0.55,0.58-1.11,1.17-1.66,1.75c0.87-0.04,1.75-0.07,2.62-0.11
				c-0.03-0.26-0.08-0.51-0.17-0.76c-0.06-0.17-0.34-0.51-0.33-0.66c-0.09,0.15-0.19,0.3-0.28,0.45c0.04-0.03,0.07-0.06,0.11-0.1
				c-0.32,0.17-0.64,0.34-0.96,0.5c0.64-0.21,1.32-0.27,1.96-0.48c0.77-0.25,1.44-0.6,2.08-1.1c0.5-0.4,0.26-0.97-0.3-1.11
				C622.08,323.88,621.3,324.17,620.74,324.6L620.74,324.6z"/>
		</g>
	</g>
	<g>
		<g>
			<path d="M623.82,323.61c-0.34,0.3-0.68,0.6-1,0.92c0.22,0.02,0.44,0.04,0.67,0.07c0.06-0.2,0.08-0.37,0.07-0.58
				c-0.02-0.29-0.43-0.26-0.6-0.12c-0.1,0.11-0.22,0.16-0.37,0.13c-0.4,0.01-0.57,0.51-0.07,0.5c0.34-0.01,0.65-0.12,0.92-0.33
				c-0.2-0.04-0.4-0.08-0.6-0.12c0.01,0.21-0.01,0.38-0.07,0.58c-0.1,0.35,0.56,0.17,0.67,0.07c0.29-0.28,0.58-0.54,0.88-0.8
				C624.67,323.6,624.09,323.39,623.82,323.61L623.82,323.61z"/>
		</g>
	</g>
	<rect x="68.09" y="214.11" class="st15" width="395.89" height="275.14"/>
	<text transform="matrix(1 0 0 1 68.0913 227.6081)" class="st16 st17">Why me ? Oh it is so simple,  </text>
	<text transform="matrix(1 0 0 1 68.0913 260.0081)" class="st16 st17">because it is ME of course.</text>
	<rect x="24.06" y="340.2" width="294.79" height="5.74"/>
	<rect x="18.33" y="187.03" width="5.74" height="153.18"/>
	<rect x="24.06" y="181.29" width="434.19" height="5.74"/>
	<rect x="458.25" y="187.03" width="5.74" height="153.18"/>
	<rect x="390.08" y="340.66" width="68.17" height="5.74"/>
	<rect x="312.01" y="345.95" width="48.59" height="5.74"/>
	<rect x="390.07" y="340.66" width="5.74" height="16.73"/>
	<rect x="395.81" y="346.4" width="8.36" height="16.73"/>
	<rect x="404.17" y="363.12" width="5.74" height="5.74"/>
	<rect x="381.29" y="368.86" width="33.95" height="5.74"/>
	<rect x="381.3" y="363.13" width="5.74" height="11.47"/>
	<rect x="361.86" y="363.12" width="25.17" height="5.74"/>
	<rect x="361.86" y="357.4" width="5.74" height="11.47"/>
	<rect x="354.86" y="357.39" width="12.59" height="5.74"/>
	<rect x="354.86" y="351.66" width="5.74" height="11.47"/>
</g>
<g id="corps">
	
		<ellipse transform="matrix(0.2538 -0.9673 0.9673 0.2538 73.3125 896.5841)" class="st7" cx="617.75" cy="400.78" rx="8.83" ry="24.4"/>
	<rect x="611.01" y="367.56" class="st18" width="97.7" height="113.47"/>
	<rect x="654.93" y="483.02" class="st19" width="26.68" height="58.3"/>
	<rect x="631.05" y="483.02" class="st19" width="26.68" height="58.3"/>
	<ellipse transform="matrix(0.866 -0.5 0.5 0.866 -116.06 381.5334)" class="st7" cx="653.9" cy="407.33" rx="34.5" ry="13.81"/>
	
		<ellipse transform="matrix(0.2538 -0.9673 0.9673 0.2538 55.887 908.2155)" class="st7" cx="616.57" cy="417.89" rx="8.83" ry="24.4"/>
	<polygon class="st7" points="583.53,414.28 594.02,415.36 601.19,407.63 597.88,398.82 587.39,397.74 580.21,405.47 	"/>
	<polygon class="st7" points="584.34,397.18 594.83,398.25 602,390.52 598.68,381.72 588.19,380.64 581.02,388.37 	"/>
	<path class="st20" d="M657.63,391.07c3.77,7.61,6.74,16.13,9,24.67c13.14-9.05,20.73-19.91,17.36-25.74
		c-3.04-5.24-14.07-4.8-26.74,0.41C657.38,390.61,657.5,390.83,657.63,391.07z"/>
</g>
</svg>
