<?xml version="1.0" encoding="utf-8"?>
<!-- Generator: Adobe Illustrator 23.0.3, SVG Export Plug-In . SVG Version: 6.00 Build 0)  -->
<svg version="1.1" id="Calque_1" xmlns="http://www.w3.org/2000/svg" xmlns:xlink="http://www.w3.org/1999/xlink" x="0px" y="0px"
	 viewBox="0 0 963.58 554.25" style="enable-background:new 0 0 963.58 554.25;" xml:space="preserve">
<style type="text/css">
	.st0{display:none;}
	.st1{display:inline;fill:#F9E39A;}
	.st2{display:inline;}
	.st3{display:inline;fill:#FFFFFF;}
	.st4{display:inline;fill:none;stroke:#000000;stroke-width:0.5;stroke-miterlimit:10;}
	.st5{stroke:#000000;stroke-width:0.5;stroke-miterlimit:10;}
	.st6{fill:#FFEFC9;}
	.st7{fill:#F4DBA8;}
	.st8{fill:#373635;}
	.st9{fill:none;stroke:#000000;stroke-miterlimit:10;}
	.st10{fill:#D4C8AA;}
	.st11{stroke:#000000;stroke-miterlimit:10;}
	.st12{fill:#FFFFFF;}
	.st13{fill:#FCD198;}
	.st14{fill:#B382A0;stroke:#000000;stroke-width:0.5;stroke-miterlimit:10;}
	.st15{fill:none;stroke:#000000;stroke-width:0.5;stroke-miterlimit:10;}
	.st16{fill:#F28E3D;}
	.st17{fill:#2A2A29;stroke:#000000;stroke-width:0.5;stroke-miterlimit:10;}
	.st18{fill:none;}
	.st19{font-family:'Poco';}
	.st20{font-size:27px;}
	.st21{fill:#BA702E;}
</style>
<g id="peau" class="st0">
	<rect x="141.69" y="123.23" class="st1" width="172.52" height="129.01"/>
</g>
<g class="st0">
	<rect x="266.55" y="152.75" class="st2" width="25.08" height="4.69"/>
	<rect x="198.13" y="152.75" class="st2" width="25.08" height="4.69"/>
	<rect x="275.99" y="165.09" class="st2" width="15.65" height="15.65"/>
	<rect x="207.56" y="165.09" class="st2" width="15.65" height="15.65"/>
	<rect x="207.56" y="208.74" class="st3" width="76.25" height="24.63"/>
	<line class="st4" x1="207.56" y1="221.06" x2="283.81" y2="221.06"/>
</g>
<g id="cheveux">
	<g>
		<polygon class="st5" points="332.54,136.49 217.35,152.69 285.38,27.28 419.7,8.39 		"/>
	</g>
	<polygon class="st5" points="522.59,138.81 101.3,244.15 161.55,139.72 427.57,73.21 	"/>
	<polygon class="st5" points="377.92,252.57 187.58,261.28 51.73,165.91 242.07,157.21 	"/>
	<polygon class="st5" points="311.94,267.19 158.6,323.79 11.13,254.95 164.47,198.35 	"/>
	<polygon class="st5" points="282.8,310.69 290.84,348.8 77.24,321.34 274.92,278.66 	"/>
	<polygon class="st5" points="466.79,246.77 197.62,189.9 260.32,149.92 430.28,185.83 	"/>
</g>
<g id="peau_1_">
	<polygon class="st6" points="358.73,362.45 230.59,359.86 207.1,209.22 377.28,216.18 	"/>
	<polygon class="st7" points="390.37,270.46 279.96,271.71 305.04,208.59 389.99,251.85 	"/>
	<polygon class="st7" points="290.13,271.21 223.15,272.42 232.17,206.88 306.65,212.84 	"/>
	<polygon class="st6" points="302.92,271.84 297.52,294.76 208.51,284.22 217.74,254.12 	"/>
	<polygon class="st8" points="303.75,227.59 299.58,224.99 276.5,228.25 308.27,230.4 	"/>
	<polygon class="st8" points="286.45,228.45 278.61,228.55 269.86,232.77 301.55,228.25 	"/>
	<polygon class="st8" points="267.47,228.77 271.96,225.5 299.68,224.99 253.33,239.06 	"/>
	<polygon class="st5" points="272.05,131.69 305.37,74.7 407.57,267.35 244.01,183.21 	"/>
	<polygon class="st6" points="276.78,338.8 232.23,360.38 192.76,303.47 252.67,276.24 	"/>
	<polygon class="st6" points="251.25,287.96 189.27,314.11 169.35,251.68 203.85,236.35 	"/>
	<polygon class="st5" points="202.27,179.75 217.37,152.59 255.71,239.75 189.49,204.26 	"/>
	<polygon class="st5" points="213.44,257.69 179.81,177.57 210.09,172.95 246.68,268.33 	"/>
	<circle class="st6" cx="344.04" cy="329.52" r="14.27"/>
</g>
<g id="sourcils">
	<line class="st9" x1="253.33" y1="239.31" x2="277.33" y2="231.78"/>
	<line class="st9" x1="277.14" y1="231.81" x2="290.94" y2="229.63"/>
	<line class="st9" x1="290.74" y1="229.63" x2="308.27" y2="230.72"/>
</g>
<g id="ombre_cheveux">
	<g>
		<polygon class="st8" points="270.96,145.14 222.38,145.96 257.74,82.75 312.65,83.21 		"/>
	</g>
	<g>
		<polygon class="st8" points="314.74,40.08 274.31,48.45 294.33,26.06 420.12,8.4 		"/>
	</g>
	<g>
		<polygon class="st8" points="320.28,22.17 278.17,134.27 232.37,124.39 285.68,26.73 		"/>
	</g>
	<g>
		<polygon class="st8" points="276.44,110.18 269.77,145.65 180.72,168.96 161.55,139.72 		"/>
	</g>
	<g>
		<polygon class="st8" points="145.08,168.18 161.56,139.65 208.55,147.9 167.66,195.49 		"/>
	</g>
	<polygon class="st8" points="174.99,176.92 167.75,195.11 51.73,166.15 181.28,159.77 	"/>
	<g>
		<polygon class="st8" points="427.6,72.98 464.08,98.41 346.42,116.63 365.66,88.47 		"/>
	</g>
	<polygon class="st8" points="414.89,84.45 428.21,73.22 523.11,138.9 402.82,95.23 	"/>
	<polygon class="st8" points="132.24,225.89 150.01,244.15 11.13,254.95 118.89,212.99 	"/>
	<polygon class="st8" points="139.97,237.87 150.01,244.15 92.2,262.32 132.53,233.5 	"/>
	<polygon class="st8" points="134.11,312.94 141.97,317.28 75.84,321.48 128.69,310.07 	"/>
	<g>
		<polygon class="st8" points="428.54,185.58 442.4,209.24 339.87,183.87 381.01,175.4 		"/>
	</g>
	<polygon class="st8" points="421.36,183.59 430.6,185.37 467.01,246.6 412.52,182.07 	"/>
	<polygon class="st8" points="379.95,225.8 388.48,230.75 407.57,267.04 369.44,219.72 	"/>
	<polygon class="st8" points="239.14,209.32 243.2,210.62 256.08,240.15 235.25,208.16 	"/>
	<polygon class="st8" points="224.88,225.22 230.92,226.68 247.14,268.95 219.09,223.95 	"/>
</g>
<g id="nez" class="st0">
	<g class="st2">
		<g>
			<path d="M320.86,297.71c6.76,3.43,14.21,7.14,22.03,5.94c6.28-0.96,11.54-4.74,13.57-10.84c1.02-3.06-3.81-4.37-4.82-1.33
				c-4.2,12.61-20.38,5.91-28.26,1.91C320.52,291.94,317.99,296.25,320.86,297.71L320.86,297.71z"/>
		</g>
	</g>
</g>
<g id="nez_1_">
	<polygon class="st6" points="359.5,361.34 265.75,312.58 390.41,258.53 391.8,314.32 	"/>
	<polygon class="st10" points="317.83,300.33 317.86,294.76 333.97,306.65 318.82,308.44 	"/>
</g>
<g id="yeux">
	<ellipse class="st11" cx="283.46" cy="265.62" rx="20.21" ry="26.48"/>
	<ellipse class="st12" cx="283.24" cy="266.36" rx="20.15" ry="26.35"/>
	<ellipse class="st11" cx="285.7" cy="268.95" rx="7.4" ry="15.43"/>
	<circle class="st12" cx="279.96" cy="270.32" r="3.28"/>
</g>
<g id="yeux_1_">
	<ellipse class="st11" cx="356.61" cy="264.9" rx="20.21" ry="26.48"/>
	<ellipse class="st12" cx="356.61" cy="265.62" rx="20.15" ry="26.35"/>
	<ellipse class="st11" cx="358.31" cy="267.76" rx="7.4" ry="15.43"/>
	<circle class="st12" cx="352.46" cy="270.32" r="3.28"/>
</g>
<g id="oreille">
	<path class="st13" d="M189.92,275.43c0.03,3.74,0.09,7.48,0.1,11.22c0,0.13-0.01,0.25-0.02,0.37l3.1,8.3l4.52-26.15L189.92,275.43z
		"/>
	<path class="st13" d="M196.82,269.41c-0.21,0.38-0.47,0.74-0.77,1.06l-3.51,24.68l14.11-3.07l1.01-15.45L196.82,269.41z"/>
	<polygon class="st13" points="196.17,271.3 201.17,258.24 204.02,259.21 200.18,272.17 	"/>
	<polygon class="st13" points="200.63,261.44 193.57,249.23 196.25,247.91 204.02,259.25 	"/>
	<polygon class="st13" points="182.32,259.83 180.38,255.69 182.86,255.96 184.56,263.3 	"/>
	<polygon class="st13" points="197.62,250.07 181.67,258.14 180.38,255.87 193.85,249.13 	"/>
	<path class="st14" d="M324.1,332.3c0.01,0,0.02,0.01,0.02,0.01c-0.02-0.01-0.04-0.02-0.06-0.02c-0.06-0.02-0.12-0.05-0.18-0.07
		c-0.05-0.01-0.1-0.01-0.13-0.01c-0.38-0.01-0.75-0.07-1.1-0.15c-0.46-0.04-0.91-0.09-1.32-0.16c-6.78-1.09-13.44-2.83-20.13-4.32
		c-7.08-1.58-14.18-2.92-21.3-4.28c-0.59-0.11-1.17-0.26-1.76-0.4c-2.57-0.15-5.09-0.73-7.64-0.99c-0.52-0.05-1.02-0.18-1.5-0.34
		c-2.34-0.31-4.67-0.75-6.99-1.22c-0.16,0.61-0.31,1.22-0.41,1.85c-2.27,13.88,10.39,27.5,28.28,30.43
		c17.88,2.93,34.23-5.94,36.51-19.81c-0.21-0.05-0.42-0.11-0.63-0.16C325.19,332.63,324.64,332.5,324.1,332.3z"/>
	<line class="st15" x1="300.89" y1="327.68" x2="317.48" y2="346.67"/>
	<g>
		<g>
			<path d="M313.84,338.3c3.22,0,3.22-5,0-5C310.63,333.3,310.62,338.3,313.84,338.3L313.84,338.3z"/>
		</g>
	</g>
	<g>
		<g>
			<path d="M313.51,335.88c2.2-0.04,4.07,1.22,6.39,1.07c2.65-0.17,3.59-4.33,0.66-4.91c-1.19-0.23-2.33-0.51-3.5-0.84
				c-3.12-0.89-4.35,3.79-1.33,4.82c2.5,0.85,5.04,0.93,7.67,1.06c-0.72-1.25-1.44-2.51-2.16-3.76c-0.58,1.19-1.16,2.39-1.78,3.56
				c-0.34,0.64-1.35,2.32-1.32,2.31c0.64,0.08,1.28,0.17,1.93,0.25c-0.97-0.42-5.1-2.48-5.25-3.39c-0.08,0.64-0.17,1.28-0.25,1.93
				c0.11-0.19,0.22-0.38,0.33-0.58c-0.5,0.38-1,0.77-1.49,1.15c1.33-0.3,1.21,0.29,2.14,0.97c0.84,0.61,1.72,0.69,2.72,0.8
				c-0.72-1.25-1.44-2.51-2.16-3.76c-0.7,1.6-1.29,3.18-1.72,4.88c1.39-0.37,2.79-0.74,4.18-1.1c-1.89-1.97-3.11-4.45-5.16-6.3
				c-1.44-1.29-4.53-0.55-4.27,1.77c0.01,0.13,0.03,0.25,0.04,0.38c1.55-0.42,3.11-0.84,4.66-1.26c-1.05-1.62-2.63-2.65-3.73-4.2
				c-0.94,1.22-1.88,2.45-2.82,3.67c1.68,0.26,3.34,0.57,5.01,0.93c3.14,0.68,4.48-4.14,1.33-4.82c-1.66-0.36-3.33-0.67-5.01-0.93
				c-1.9-0.3-4.23,1.7-2.82,3.67c1.09,1.54,2.72,2.64,3.73,4.2c1.22,1.89,4.96,1.38,4.66-1.26c-0.01-0.13-0.03-0.25-0.04-0.38
				c-1.42,0.59-2.85,1.18-4.27,1.77c2.03,1.83,3.27,4.33,5.16,6.3c1.29,1.34,3.72,0.7,4.18-1.1c0.32-1.28,0.68-2.46,1.22-3.68
				c0.81-1.83-0.16-3.54-2.16-3.76c0.44,0.39,0.51,0.41,0.19,0.04c-0.21-0.31-0.47-0.57-0.78-0.79c-0.54-0.42-1.18-0.76-1.85-0.94
				c-1.12-0.29-2.66-0.33-3.76,0.09c-2.81,1.08-2.53,4.45-0.62,6.2c1.78,1.63,5.72,4.69,8.28,4.02c3.12-0.81,4.57-5.58,5.82-8.12
				c0.85-1.73-0.19-3.66-2.16-3.76c-2.18-0.11-4.25-0.17-6.34-0.88c-0.44,1.61-0.89,3.21-1.33,4.82c1.17,0.33,2.31,0.61,3.5,0.84
				c0.22-1.64,0.44-3.27,0.66-4.91c-2.25,0.14-4.13-1.11-6.39-1.07C310.29,330.93,310.28,335.93,313.51,335.88L313.51,335.88z"/>
		</g>
	</g>
	<g>
		<g>
			<path d="M317.89,345.51c3.22,0,3.22-5,0-5S314.67,345.51,317.89,345.51L317.89,345.51z"/>
		</g>
	</g>
	<g>
		<g>
			<path d="M318.13,345.39c3.22,0,3.22-5,0-5C314.92,340.39,314.91,345.39,318.13,345.39L318.13,345.39z"/>
		</g>
	</g>
	<g>
		<g>
			<path d="M317.73,345.96c3.22,0,3.22-5,0-5S314.51,345.96,317.73,345.96L317.73,345.96z"/>
		</g>
	</g>
	<g>
		<g>
			<path d="M317.42,346.29c1.24,0,3.02-1.87,1.07-1.87C317.25,344.42,315.47,346.29,317.42,346.29L317.42,346.29z"/>
		</g>
	</g>
	<g>
		<g>
			<path d="M317.51,346.37c0.04,0,0.04-5,0-5S317.47,346.37,317.51,346.37L317.51,346.37z"/>
		</g>
	</g>
	<g>
		<g>
			<path d="M317.57,341.37c-0.08,0-0.15,0-0.23,0c-0.04,0-0.04,5,0,5c0.08,0,0.15,0,0.23,0
				C317.61,346.37,317.61,341.37,317.57,341.37L317.57,341.37z"/>
		</g>
	</g>
	<g>
		<g>
			<path d="M323.57,334.19c0.57,0,3.26-1.1,1.9-1.1C324.9,333.09,322.21,334.19,323.57,334.19L323.57,334.19z"/>
		</g>
	</g>
	<g>
		<g>
			<path d="M323,334.01c0,0.06,0,0.13,0,0.19c0,0.66,2.9,0.19,2.9-0.78c0-0.06,0-0.13,0-0.19C325.9,332.58,323,333.05,323,334.01
				L323,334.01z"/>
		</g>
	</g>
	<g>
		<g>
			<path d="M302.49,329.78c0.52,0.41,1.05,0.68,1.68,0.87c0.61,0.19,1.26,0.24,1.87,0.45c-0.16-0.08-0.31-0.16-0.47-0.25
				c0,0.03,0,0.06,0,0.08c0.03-0.15,0.06-0.3,0.09-0.45c-0.28,0.55-0.53,1.07-0.61,1.69c0.93-0.25,1.86-0.5,2.79-0.75
				c-0.55-0.58-1.11-1.17-1.66-1.75c-0.74-0.78-3.5,0.3-2.68,1.16c0.55,0.58,1.11,1.17,1.66,1.75c0.6,0.64,2.68,0.21,2.79-0.75
				c0.06-0.47,0.24-0.81,0.41-1.24c0.24-0.58-0.01-0.98-0.59-1.17c-0.86-0.28-1.87-0.25-2.61-0.83c-0.54-0.43-1.33-0.33-1.93-0.07
				C302.95,328.68,301.95,329.35,302.49,329.78L302.49,329.78z"/>
		</g>
	</g>
	<g>
		<g>
			<path d="M301.41,328.28c0.3,0.26,0.6,0.54,0.89,0.81c0.18,0.17,0.79,0.08,0.69-0.25c-0.05-0.18-0.07-0.32-0.06-0.51
				c-0.22,0.08-0.43,0.16-0.65,0.23c0.24,0.19,0.49,0.28,0.79,0.28c0.16,0,0.41-0.04,0.47-0.22c0.06-0.15-0.05-0.28-0.22-0.29
				c-0.19,0-0.34-0.06-0.49-0.18c-0.17-0.13-0.63-0.01-0.65,0.23c-0.01,0.22,0.01,0.43,0.07,0.64c0.23-0.08,0.46-0.17,0.69-0.25
				c-0.32-0.31-0.65-0.61-0.99-0.91C301.74,327.68,301.1,328.01,301.41,328.28L301.41,328.28z"/>
		</g>
	</g>
</g>
<g id="corps">
	
		<ellipse transform="matrix(0.9271 -0.3748 0.3748 0.9271 -125.8895 150.1901)" class="st7" cx="323.19" cy="398.76" rx="34.5" ry="13.81"/>
	
		<ellipse transform="matrix(0.7894 -0.6139 0.6139 0.7894 -157.9612 300.7336)" class="st7" cx="359.27" cy="380.56" rx="25.94" ry="9.88"/>
	<rect x="249.28" y="367.68" class="st16" width="97.7" height="113.47"/>
	<rect x="276.38" y="483.15" class="st17" width="26.68" height="58.3"/>
	<rect x="306.02" y="483.15" class="st17" width="26.68" height="58.3"/>
	
		<ellipse transform="matrix(0.9968 -0.0795 0.0795 0.9968 -31.9216 21.1166)" class="st7" cx="249.28" cy="411.52" rx="13.81" ry="34.5"/>
	
		<ellipse transform="matrix(0.8807 -0.4738 0.4738 0.8807 -180.8802 173.8089)" class="st7" cx="254.55" cy="445.93" rx="8.83" ry="24.4"/>
	<polygon class="st7" points="255.13,474.7 258.18,464.61 268.08,460.97 274.93,467.43 271.86,477.52 261.97,481.15 	"/>
	<rect x="537.83" y="193.41" class="st18" width="395.89" height="275.14"/>
	<text transform="matrix(1 0 0 1 537.8273 206.9069)" class="st19 st20">Hi my name’s Franck, I was </text>
	<text transform="matrix(1 0 0 1 537.8273 239.3069)" class="st19 st20">handmade on Illustrator and I’m </text>
	<text transform="matrix(1 0 0 1 537.8273 271.7069)" class="st19 st20">going to let you enjoy my </text>
	<text transform="matrix(1 0 0 1 537.8273 304.1069)" class="st19 st20">e-portfolio !</text>
	<rect x="654.16" y="326.12" width="294.79" height="5.74"/>
	<rect x="948.96" y="172.94" width="5.74" height="153.18"/>
	<rect x="514.77" y="167.21" width="434.19" height="5.74"/>
	<rect x="509.04" y="172.94" width="5.74" height="153.18"/>
	<rect x="514.77" y="326.58" width="68.17" height="5.74"/>
	<rect x="612.42" y="331.86" width="48.59" height="5.74"/>
	<rect x="577.21" y="326.58" width="5.74" height="16.73"/>
	<rect x="568.85" y="332.32" width="8.36" height="16.73"/>
	<rect x="563.11" y="349.04" width="5.74" height="5.74"/>
	<rect x="557.77" y="354.78" width="33.95" height="5.74"/>
	<rect x="585.98" y="349.05" width="5.74" height="11.47"/>
	<rect x="585.98" y="349.04" width="25.17" height="5.74"/>
	<rect x="605.42" y="343.31" width="5.74" height="11.47"/>
	<rect x="605.57" y="343.31" width="12.59" height="5.74"/>
	<rect x="612.42" y="337.57" width="5.74" height="11.47"/>
	<path class="st21" d="M236.08,401.36c8.49-0.12,17.46,0.88,26.14,2.52c-2.49-15.76-9.02-27.29-15.73-26.76
		c-6.04,0.48-10.4,10.62-11.17,24.3C235.56,401.39,235.81,401.37,236.08,401.36z"/>
	<polygon class="st7" points="385.49,351.21 391.8,359.66 388.84,369.79 379.58,371.46 373.28,363 376.24,352.88 	"/>
</g>
</svg>
