<?xml version="1.0" encoding="utf-8"?>
<!-- Generator: Adobe Illustrator 23.0.3, SVG Export Plug-In . SVG Version: 6.00 Build 0)  -->
<svg version="1.1" xmlns="http://www.w3.org/2000/svg" xmlns:xlink="http://www.w3.org/1999/xlink" x="0px" y="0px"
	 viewBox="0 0 1012.74 554.25" style="enable-background:new 0 0 1012.74 554.25;" xml:space="preserve">
<style type="text/css">
	.st0{display:none;}
	.st1{display:inline;fill:#F9E39A;}
	.st2{display:inline;}
	.st3{display:inline;fill:#FFFFFF;}
	.st4{display:inline;fill:none;stroke:#000000;stroke-width:0.5;stroke-miterlimit:10;}
	.st5{stroke:#000000;stroke-width:0.5;stroke-miterlimit:10;}
	.st6{fill:#FFEFC9;}
	.st7{fill:#F4DBA8;}
	.st8{fill:#373635;}
	.st9{fill:none;stroke:#000000;stroke-miterlimit:10;}
	.st10{stroke:#000000;stroke-miterlimit:10;}
	.st11{fill:#FFFFFF;}
	.st12{fill:#FCD198;}
	.st13{fill:#B382A0;stroke:#000000;stroke-width:0.5;stroke-miterlimit:10;}
	.st14{fill:none;stroke:#000000;stroke-width:0.5;stroke-miterlimit:10;}
	.st15{fill:#161744;}
	.st16{fill:#1F2864;}
	.st17{fill:#1F2864;stroke:#000000;stroke-width:0.5;stroke-miterlimit:10;}
	.st18{fill:#C91517;stroke:#000000;stroke-width:0.25;stroke-miterlimit:10;}
	.st19{fill:none;}
	.st20{font-family:'Poco';}
	.st21{font-size:27px;}
</style>
<g id="peau" class="st0">
	<rect x="141.69" y="123.23" class="st1" width="172.52" height="129.01"/>
</g>
<g id="Calque_2" class="st0">
	<rect x="266.55" y="152.75" class="st2" width="25.08" height="4.69"/>
	<rect x="198.13" y="152.75" class="st2" width="25.08" height="4.69"/>
	<rect x="275.99" y="165.09" class="st2" width="15.65" height="15.65"/>
	<rect x="207.56" y="165.09" class="st2" width="15.65" height="15.65"/>
	<rect x="207.56" y="208.74" class="st3" width="76.25" height="24.63"/>
	<line class="st4" x1="207.56" y1="221.06" x2="283.81" y2="221.06"/>
</g>
<g id="cheveux">
	<g>
		<polygon class="st5" points="680.48,136.8 795.67,153 727.64,27.59 593.32,8.7 		"/>
	</g>
	<polygon class="st5" points="490.43,139.13 911.72,244.47 851.47,140.04 585.44,73.52 	"/>
	<polygon class="st5" points="635.09,252.89 825.44,261.59 961.29,166.22 770.95,157.52 	"/>
	<polygon class="st5" points="701.07,267.5 854.42,324.11 1001.89,255.26 848.55,198.66 	"/>
	<polygon class="st5" points="730.22,311 722.17,349.11 935.78,321.66 738.1,278.97 	"/>
	<polygon class="st5" points="546.23,247.09 815.4,190.21 752.7,150.23 582.74,186.15 	"/>
</g>
<g id="peau_1_">
	<polygon class="st6" points="654.28,362.77 782.43,360.17 805.92,209.53 635.74,216.5 	"/>
	<polygon class="st7" points="643.21,274.51 733.06,274.76 711.07,212.76 638.08,235.22 	"/>
	<polygon class="st7" points="722.89,271.52 789.87,272.73 780.85,207.2 706.37,213.15 	"/>
	<polygon class="st6" points="710.1,272.16 715.5,295.08 804.51,284.53 795.27,254.44 	"/>
	<polygon class="st8" points="697.64,222.94 693.12,221.49 671.31,233.73 702.09,224.37 	"/>
	<polygon class="st8" points="708.87,226.89 699.23,217.71 643,214.65 720.73,238.2 	"/>
	<polygon class="st5" points="740.97,132 707.65,75.01 605.45,267.66 769.01,183.53 	"/>
	<polygon class="st6" points="736.24,339.11 780.79,360.69 820.26,303.78 760.35,276.55 	"/>
	<polygon class="st6" points="761.76,288.27 823.75,314.43 843.67,251.99 809.17,236.66 	"/>
	<polygon class="st5" points="810.75,180.06 795.65,152.9 757.31,240.06 823.53,204.58 	"/>
	<polygon class="st5" points="799.58,258 833.21,177.88 802.93,173.26 766.34,268.65 	"/>
	<circle class="st6" cx="668.98" cy="329.83" r="14.27"/>
</g>
<g id="sourcils">
	<line class="st9" x1="720.62" y1="238.69" x2="688.5" y2="228.96"/>
	<line class="st9" x1="688.77" y1="228.93" x2="671.31" y2="233.27"/>
</g>
<g id="ombre_cheveux">
	<g>
		<polygon class="st8" points="742.06,145.46 790.64,146.27 755.28,83.07 700.37,83.52 		"/>
	</g>
	<g>
		<polygon class="st8" points="698.28,40.39 738.71,48.76 718.69,26.38 592.9,8.72 		"/>
	</g>
	<g>
		<polygon class="st8" points="692.73,22.49 734.85,134.58 780.65,124.7 727.33,27.04 		"/>
	</g>
	<g>
		<polygon class="st8" points="736.58,110.49 743.25,145.96 832.3,169.27 851.47,140.04 		"/>
	</g>
	<g>
		<polygon class="st8" points="867.94,168.49 851.46,139.96 804.47,148.21 845.36,195.81 		"/>
	</g>
	<polygon class="st8" points="838.03,177.23 845.27,195.42 961.29,166.46 831.74,160.08 	"/>
	<g>
		<polygon class="st8" points="585.42,73.3 548.94,98.73 666.6,116.94 647.36,88.79 		"/>
	</g>
	<polygon class="st8" points="598.13,84.76 584.81,73.53 489.91,139.21 610.2,95.55 	"/>
	<polygon class="st8" points="880.78,226.2 863.01,244.47 1001.89,255.26 894.13,213.3 	"/>
	<polygon class="st8" points="873.05,238.18 863.01,244.47 920.82,262.64 880.49,233.82 	"/>
	<polygon class="st8" points="878.91,313.25 871.05,317.6 937.18,321.79 884.33,310.39 	"/>
	<g>
		<polygon class="st8" points="584.48,185.89 570.62,209.56 673.15,184.18 632.01,175.71 		"/>
	</g>
	<polygon class="st8" points="591.66,183.9 582.42,185.69 546,246.91 600.5,182.39 	"/>
	<polygon class="st8" points="633.07,226.12 624.54,231.06 605.45,267.36 643.57,220.04 	"/>
	<polygon class="st8" points="773.88,209.63 769.82,210.93 756.94,240.46 777.77,208.47 	"/>
	<polygon class="st8" points="788.13,225.53 782.09,226.99 765.88,269.27 793.93,224.26 	"/>
</g>
<g id="nez" class="st0">
	<g class="st2">
		<g>
			<path d="M320.86,297.71c6.76,3.43,14.21,7.14,22.03,5.94c6.28-0.96,11.54-4.74,13.57-10.84c1.02-3.06-3.81-4.37-4.82-1.33
				c-4.2,12.61-20.38,5.91-28.26,1.91C320.52,291.94,317.99,296.25,320.86,297.71L320.86,297.71z"/>
		</g>
	</g>
</g>
<g id="yeux">
	<ellipse class="st10" cx="694.67" cy="265.68" rx="20.21" ry="26.48"/>
	<ellipse class="st11" cx="694.26" cy="266.41" rx="20.15" ry="26.35"/>
	<ellipse class="st10" cx="681.86" cy="267.36" rx="7.4" ry="15.43"/>
	<circle class="st11" cx="686.4" cy="255.57" r="3.28"/>
</g>
<g id="nez_1_">
	<polygon class="st6" points="643.87,310.8 663.89,301.09 656.81,278.97 630.87,291.56 	"/>
	<polygon class="st6" points="653.33,362.79 759.58,313.96 645.5,302.34 636.35,335.72 	"/>
</g>
<g id="oreille">
	<path class="st12" d="M823.1,275.74c-0.03,3.74-0.09,7.48-0.1,11.22c0,0.13,0.01,0.25,0.02,0.37l-3.1,8.3l-4.52-26.15L823.1,275.74
		z"/>
	<path class="st12" d="M816.2,269.72c0.21,0.38,0.47,0.74,0.77,1.06l3.51,24.68l-14.11-3.07l-1.01-15.45L816.2,269.72z"/>
	<polygon class="st12" points="816.85,271.61 811.85,258.55 809,259.53 812.84,272.49 	"/>
	<polygon class="st12" points="812.39,261.75 819.45,249.55 816.77,248.23 809,259.56 	"/>
	<polygon class="st12" points="830.7,260.14 832.64,256 830.16,256.27 828.46,263.62 	"/>
	<polygon class="st12" points="815.4,250.38 831.35,258.46 832.64,256.18 819.17,249.44 	"/>
	<path class="st13" d="M656.99,328.54c-0.01,0-0.02,0.01-0.02,0.01c0.02-0.01,0.04-0.02,0.06-0.02c0.06-0.02,0.12-0.05,0.18-0.07
		c0.05-0.01,0.1-0.01,0.13-0.01c0.38-0.01,0.75-0.07,1.1-0.15c0.46-0.04,0.91-0.09,1.32-0.16c6.78-1.09,13.44-2.83,20.13-4.32
		c7.08-1.58,14.18-2.92,21.3-4.28c0.59-0.11,1.17-0.26,1.76-0.4c2.57-0.15,5.09-0.73,7.64-0.99c0.52-0.05,1.02-0.18,1.5-0.34
		c2.34-0.31,4.67-0.75,6.99-1.22c0.16,0.61,0.31,1.22,0.41,1.85c2.27,13.88-10.39,27.5-28.28,30.43
		c-17.88,2.93-34.23-5.94-36.51-19.81c0.21-0.05,0.42-0.11,0.63-0.16C655.9,328.86,656.45,328.74,656.99,328.54z"/>
	<line class="st14" x1="679.89" y1="323.81" x2="663.3" y2="342.8"/>
	<g>
		<g>
			<path d="M666.94,334.42c3.22,0,3.22-5,0-5C663.72,329.42,663.71,334.42,666.94,334.42L666.94,334.42z"/>
		</g>
	</g>
	<g>
		<g>
			<path d="M667.27,327c-2.25-0.04-4.14,1.21-6.39,1.07c0.22,1.64,0.44,3.27,0.66,4.91c1.19-0.23,2.33-0.51,3.5-0.84
				c-0.44-1.61-0.89-3.21-1.33-4.82c-2.09,0.71-4.15,0.77-6.34,0.88c-1.97,0.1-3.01,2.03-2.16,3.76c1.22,2.49,2.61,7.03,5.56,8.06
				c2.61,0.91,6.8-2.31,8.55-3.96c1.8-1.7,2.26-4.79-0.32-6.08c-1.13-0.57-2.86-0.53-4.06-0.22c-0.67,0.18-1.31,0.51-1.85,0.94
				c-0.19,0.18-0.39,0.36-0.58,0.54c-0.53,0.6-0.53,0.67,0,0.21c-2,0.22-2.97,1.93-2.16,3.76c0.54,1.22,0.9,2.4,1.22,3.68
				c0.46,1.81,2.89,2.45,4.18,1.1c1.89-1.97,3.13-4.47,5.16-6.3c-1.42-0.59-2.85-1.18-4.27-1.77c-0.01,0.13-0.03,0.25-0.04,0.38
				c-0.3,2.64,3.44,3.15,4.66,1.26c1.01-1.56,2.64-2.66,3.73-4.2c1.41-1.98-0.92-3.97-2.82-3.67c-1.68,0.26-3.34,0.57-5.01,0.93
				c-3.14,0.68-1.81,5.5,1.33,4.82c1.66-0.36,3.33-0.67,5.01-0.93c-0.94-1.22-1.88-2.45-2.82-3.67c-1.1,1.55-2.68,2.58-3.73,4.2
				c1.55,0.42,3.11,0.84,4.66,1.26c0.01-0.13,0.03-0.25,0.04-0.38c0.26-2.32-2.82-3.07-4.27-1.77c-2.05,1.84-3.27,4.32-5.16,6.3
				c1.39,0.37,2.79,0.74,4.18,1.1c-0.43-1.7-1.02-3.28-1.72-4.88c-0.72,1.25-1.44,2.51-2.16,3.76c1-0.11,1.88-0.19,2.72-0.8
				c0.93-0.68,0.81-1.26,2.14-0.97c-0.5-0.38-1-0.77-1.49-1.15c0.11,0.19,0.22,0.38,0.33,0.58c-0.08-0.64-0.17-1.28-0.25-1.93
				c-0.15,0.9-4.28,2.97-5.25,3.39c0.64-0.08,1.28-0.17,1.93-0.25c0.03,0.01-0.98-1.67-1.32-2.31c-0.62-1.17-1.19-2.37-1.78-3.56
				c-0.72,1.25-1.44,2.51-2.16,3.76c2.62-0.13,5.16-0.21,7.67-1.06c3.02-1.03,1.8-5.72-1.33-4.82c-1.17,0.33-2.31,0.61-3.5,0.84
				c-2.9,0.57-2.01,4.74,0.66,4.91c2.32,0.15,4.19-1.11,6.39-1.07C670.49,332.06,670.49,327.06,667.27,327L667.27,327z"/>
		</g>
	</g>
	<g>
		<g>
			<path d="M662.89,341.64c3.22,0,3.22-5,0-5C659.67,336.64,659.67,341.64,662.89,341.64L662.89,341.64z"/>
		</g>
	</g>
	<g>
		<g>
			<path d="M662.65,341.51c3.22,0,3.22-5,0-5C659.43,336.51,659.42,341.51,662.65,341.51L662.65,341.51z"/>
		</g>
	</g>
	<g>
		<g>
			<path d="M663.05,342.08c3.22,0,3.22-5,0-5C659.83,337.08,659.83,342.08,663.05,342.08L663.05,342.08z"/>
		</g>
	</g>
	<g>
		<g>
			<path d="M662.29,342.42c1.24,0,3.02-1.87,1.07-1.87C662.12,340.55,660.34,342.42,662.29,342.42L662.29,342.42z"/>
		</g>
	</g>
	<g>
		<g>
			<path d="M663.27,342.5c0.04,0,0.04-5,0-5C663.24,337.5,663.24,342.5,663.27,342.5L663.27,342.5z"/>
		</g>
	</g>
	<g>
		<g>
			<path d="M663.21,342.5c0.08,0,0.15,0,0.23,0c0.04,0,0.04-5,0-5c-0.08,0-0.15,0-0.23,0C663.17,337.5,663.17,342.5,663.21,342.5
				L663.21,342.5z"/>
		</g>
	</g>
	<g>
		<g>
			<path d="M655.31,330.31c0.57,0,3.26-1.1,1.9-1.1C656.65,329.22,653.96,330.31,655.31,330.31L655.31,330.31z"/>
		</g>
	</g>
	<g>
		<g>
			<path d="M654.88,330.14c0,0.06,0,0.13,0,0.19c0,0.66,2.9,0.19,2.9-0.78c0-0.06,0-0.13,0-0.19
				C657.78,328.7,654.88,329.17,654.88,330.14L654.88,330.14z"/>
		</g>
	</g>
	<g>
		<g>
			<path d="M675.77,325.04c-0.23,0.18-0.58,0.22-0.87,0.29c-0.6,0.14-1.23,0.2-1.78,0.5c-0.5,0.27-0.97,0.71-0.77,1.32
				c0.16,0.48,0.4,0.85,0.47,1.37c0.05,0.43,0.79,0.49,1.08,0.48c0.52-0.02,1.17-0.2,1.54-0.59c0.55-0.58,1.11-1.17,1.66-1.75
				c0.42-0.44,0.32-0.95-0.3-1.11c-0.64-0.16-1.59,0.06-2.05,0.55c-0.55,0.58-1.11,1.17-1.66,1.75c0.87-0.04,1.75-0.07,2.62-0.11
				c-0.03-0.26-0.08-0.51-0.17-0.76c-0.06-0.17-0.34-0.51-0.33-0.66c-0.09,0.15-0.19,0.3-0.28,0.45c0.04-0.03,0.07-0.06,0.11-0.1
				c-0.32,0.17-0.64,0.34-0.96,0.5c0.64-0.21,1.32-0.27,1.96-0.48c0.77-0.25,1.44-0.6,2.08-1.1c0.5-0.4,0.26-0.97-0.3-1.11
				C677.11,324.31,676.33,324.6,675.77,325.04L675.77,325.04z"/>
		</g>
	</g>
	<g>
		<g>
			<path d="M678.86,324.05c-0.34,0.3-0.68,0.6-1,0.92c0.22,0.02,0.44,0.04,0.67,0.07c0.06-0.2,0.08-0.37,0.07-0.58
				c-0.02-0.29-0.43-0.26-0.6-0.12c-0.1,0.11-0.22,0.16-0.37,0.13c-0.4,0.01-0.57,0.51-0.07,0.5c0.34-0.01,0.65-0.12,0.92-0.33
				c-0.2-0.04-0.4-0.08-0.6-0.12c0.01,0.21-0.01,0.38-0.07,0.58c-0.1,0.35,0.56,0.17,0.67,0.07c0.29-0.28,0.58-0.54,0.88-0.8
				C679.7,324.03,679.12,323.82,678.86,324.05L678.86,324.05z"/>
		</g>
	</g>
</g>
<g id="corps">
	
		<ellipse transform="matrix(0.2538 -0.9673 0.9673 0.2538 113.8913 950.1434)" class="st15" cx="672.77" cy="401.25" rx="8.83" ry="24.4"/>
	
		<rect x="666.04" y="367.99" transform="matrix(-1 -1.224647e-16 1.224647e-16 -1 1429.7705 849.4602)" class="st16" width="97.7" height="113.47"/>
	
		<rect x="709.96" y="483.47" transform="matrix(-1 -1.224647e-16 1.224647e-16 -1 1446.5905 1025.2261)" class="st17" width="26.68" height="58.3"/>
	
		<rect x="686.09" y="483.47" transform="matrix(-1 -1.224647e-16 1.224647e-16 -1 1398.8542 1025.2261)" class="st17" width="26.68" height="58.3"/>
	
		<ellipse transform="matrix(0.866 -0.5 0.5 0.866 -108.9069 409.1098)" class="st15" cx="708.96" cy="407.78" rx="34.5" ry="13.81"/>
	<polygon class="st11" points="697.05,375.05 691.22,367.86 678.78,397.59 702.01,381.6 	"/>
	<polygon class="st11" points="682.96,400.41 679.7,395.68 666.04,414.43 685.67,404.71 	"/>
	<polygon class="st18" points="665.9,377.69 671.59,374.9 672.77,368.35 664.74,368.35 	"/>
	<polygon class="st18" points="671.59,390.06 665.76,376.94 665.42,401.25 673.65,395.07 	"/>
	
		<ellipse transform="matrix(0.2538 -0.9673 0.9673 0.2538 96.4634 961.7785)" class="st15" cx="671.6" cy="418.37" rx="8.83" ry="24.4"/>
	<polygon class="st7" points="638.56,414.72 649.05,415.79 656.23,408.06 652.91,399.25 642.42,398.18 635.24,405.91 	"/>
	<polygon class="st7" points="639.37,397.61 649.86,398.69 657.03,390.96 653.72,382.15 643.23,381.08 636.05,388.81 	"/>
	<rect x="90.94" y="198.73" class="st19" width="395.89" height="275.14"/>
	<text transform="matrix(1 0 0 1 90.9379 212.2277)"><tspan x="0" y="0" class="st20 st21">I know, my professional project </tspan><tspan x="0" y="32.4" class="st20 st21">is very ambitious.</tspan></text>
	
		<rect x="66.63" y="324.83" transform="matrix(-1 -1.224647e-16 1.224647e-16 -1 428.0584 655.3928)" width="294.79" height="5.74"/>
	<rect x="-12.82" y="245.37" transform="matrix(7.111550e-14 -1 1 7.111550e-14 -184.472 312.0037)" width="153.18" height="5.74"/>
	
		<rect x="66.63" y="165.91" transform="matrix(-1 -1.224647e-16 1.224647e-16 -1 567.4526 337.5584)" width="434.19" height="5.74"/>
	<rect x="427.1" y="245.37" transform="matrix(2.404205e-14 -1 1 2.404205e-14 255.4489 751.9245)" width="153.18" height="5.74"/>
	
		<rect x="432.64" y="325.29" transform="matrix(-1 -1.224647e-16 1.224647e-16 -1 933.4631 656.3088)" width="68.17" height="5.74"/>
	
		<rect x="354.58" y="330.56" transform="matrix(-1 -1.224647e-16 1.224647e-16 -1 757.7507 666.8644)" width="48.59" height="5.74"/>
	<rect x="427.15" y="330.78" transform="matrix(6.123234e-17 -1 1 6.123234e-17 101.8628 769.1616)" width="16.73" height="5.74"/>
	<rect x="434.2" y="335.21" transform="matrix(6.123234e-17 -1 1 6.123234e-17 103.1744 781.9448)" width="16.73" height="8.36"/>
	<rect x="446.74" y="347.75" transform="matrix(6.123234e-17 -1 1 6.123234e-17 98.991 800.2231)" width="5.74" height="5.74"/>
	
		<rect x="423.87" y="353.48" transform="matrix(-1 -1.224647e-16 1.224647e-16 -1 881.6843 712.7037)" width="33.95" height="5.74"/>
	<rect x="421" y="350.62" transform="matrix(6.123234e-17 -1 1 6.123234e-17 73.2527 780.2206)" width="11.47" height="5.74"/>
	
		<rect x="404.43" y="347.75" transform="matrix(-1 -1.224647e-16 1.224647e-16 -1 834.0379 701.2321)" width="25.17" height="5.74"/>
	<rect x="401.57" y="344.88" transform="matrix(6.123234e-17 -1 1 6.123234e-17 59.553 755.0494)" width="11.47" height="5.74"/>
	
		<rect x="397.43" y="342.01" transform="matrix(-1 -1.224647e-16 1.224647e-16 -1 807.4522 689.7605)" width="12.59" height="5.74"/>
	<rect x="394.57" y="339.14" transform="matrix(6.123234e-17 -1 1 6.123234e-17 58.2889 742.3135)" width="11.47" height="5.74"/>
</g>
</svg>
